<svg xmlns="http://www.w3.org/2000/svg" width="54.032" height="72.156" viewBox="0 0 54.032 72.156">
  <defs>
    <style>
      .cls-1 {
        fill: #65ffd2;
        stroke: #08bd81;
      }
    </style>
  </defs>
  <g id="Group_3" data-name="Group 3" transform="matrix(-0.407, -0.914, 0.914, -0.407, 26.93, 71.402)">
    <path id="Path_2" data-name="Path 2" class="cls-1" d="M14.015,3.852c.2.53.745.435,1.138.6a4.294,4.294,0,0,0,.739.167c.006.03.018.054.024.083a1.658,1.658,0,0,1-.518.113c-.435-.036-.864-.119-1.293-.191a.348.348,0,0,0-.417.191c-.125.232-.31.429-.435.661a.385.385,0,0,0,.006.334,6.756,6.756,0,0,0,2.1,1.99,1.426,1.426,0,0,0,.572.089c.03-.131.048-.215.072-.322.375-.06.763-.113,1.132-.2a.634.634,0,0,0,.358-.215,1.318,1.318,0,0,1,.793-.62c.119-.024.22-.209.286-.346a.31.31,0,0,1,.316-.2,2.515,2.515,0,0,0,.56-.054,1.4,1.4,0,0,0,.34-.2c.125-.072.25-.2.381-.2.781-.054,1.567-.083,2.348-.113a2.023,2.023,0,0,1,.387.054c.06-.036.149-.131.226-.125.584.036.632,0,.584-.554-.316-.131-.626-.238-.918-.381a.42.42,0,0,1-.185-.292c-.042-.691.113-.852.787-.894.072-.006.137-.018.226-.03a1.467,1.467,0,0,1,.048.161c.941-.066,1.871-.125,2.813-.191.024.2.042.334.066.5.125.024.256.042.405.066.072-.215.143-.417.215-.626a.564.564,0,0,0,.882-.185c.03-.06.048-.143.1-.179.089-.06.22-.149.286-.119a.417.417,0,0,1,.2.274.785.785,0,0,1-.048.346c-.131.465-.28.93-.4,1.4-.06.25-.179.352-.435.316a3.613,3.613,0,0,0-.441-.006l-.036.089c.119.054.238.113.358.167a.244.244,0,0,0,.006.066l-4.374.25c-.006.036-.012.077-.018.113a1.087,1.087,0,0,0,.346.1c1.019-.036,2.044-.083,3.063-.131l.8-.036c.238-.018.393.06.387.256a1.312,1.312,0,0,1,.536-.143.341.341,0,0,0,.381-.131.565.565,0,0,1,.524-.2c.632.03,1.269.048,1.907.06.089,0,.226-.06.25-.131.119-.28.322-.3.56-.22a4.394,4.394,0,0,0,.8.226c-.328-.155-.655-.316-.989-.471a2.845,2.845,0,0,1,1.758.679.979.979,0,0,0,.4.22,55.578,55.578,0,0,1,7.657,2.05c.536.191,1.037.465,1.555.7-.012.036-.018.072-.03.107-.215-.018-.435-.042-.65-.06-.018.042-.036.089-.054.131.209.131.411.256.62.381.107.066.232.107.328.179.232.179.441.387.679.554.542.393,1.079.816,1.657,1.156a14.029,14.029,0,0,0,3.331,1.758,3.525,3.525,0,0,0,1.4.286.7.7,0,0,1,.363.1A4.527,4.527,0,0,0,52.2,13.4a13.354,13.354,0,0,1,1.859.495c1.192.393,2.372.816,3.557,1.233.036.012.066.036.036.018-.179.191-.363.393-.548.6a.365.365,0,0,1-.411.131c-.733-.22-1.466-.453-2.217-.62a11.318,11.318,0,0,0-3.379-.34,13.815,13.815,0,0,0-4.737,1.275,1.56,1.56,0,0,1-1.108.161.616.616,0,0,0-.757.584c-.012.232.1.292.286.316a2.6,2.6,0,0,0,1.758-.31,9.669,9.669,0,0,1,3.581-1.233,8.876,8.876,0,0,1,3.736.161c1.049.262,2.068.626,3.1.936.477.143.524.125.787-.292.3-.477.727-.471,1,.024a4.412,4.412,0,0,1,.262.6c.077.191.137.381.2.578a.578.578,0,0,1,.1.006c.036-.28.072-.56.107-.846a1.833,1.833,0,0,0,.262.125c.411.149.822.286,1.228.441.077.03.131.119.238.215.292-.119.572.083.87.238.369.2.739.387,1.12.548.232.1.489.119.727.2a1.743,1.743,0,0,1,.614.3c.1.1.089.328.089.5A15.338,15.338,0,0,1,64.5,21.1c-.072.59-.286.709-.876.62a.826.826,0,0,0-.238.036A.876.876,0,0,0,63.5,22a.612.612,0,0,0,.286.179.48.48,0,0,1,.435.489,5.083,5.083,0,0,1-.066.852.338.338,0,0,1-.131.191.97.97,0,0,1-1.09-.083c-.048.149-.1.286-.137.417-.423-.2-.8-.542-1.3-.358-.018.042-.03.077-.048.119.328.161.655.316.983.477-.316.405-.405.435-.876.28-.8-.268-1.609-.536-2.437-.81a6.2,6.2,0,0,1-.936,2.372,6,6,0,0,1-3.873,2.64,6.3,6.3,0,0,1-5.565-1.537,6.424,6.424,0,0,1-2.169-3.259.543.543,0,0,0-.149-.244,4.6,4.6,0,0,1-1.359-1.835c-.1-.238-.25-.28-.483-.28-1.74-.006-3.474-.018-5.214-.03a6.3,6.3,0,0,0-2.217.125c-.518.185-1.019.429-1.531.638q-1.931.8-3.867,1.6a1.515,1.515,0,0,1-.28.083c-.083.018-.173.018-.268.03a1.034,1.034,0,0,0-.066-.358c-.232-.375-.137-.423-.679-.405-1.138.03-2.276.024-3.42.024a.39.39,0,0,1-.25-.113c-.715-.787-1.436-1.561-2.127-2.366-1.359-1.579-2.7-3.17-4.052-4.755-.036-.048-.077-.089-.107-.125-.036.006-.06.006-.072.018-.542.358-.566.417-.161.894.638.751,1.293,1.472,1.937,2.217.661.757,1.317,1.525,2.014,2.33-.495,0-.936-.018-1.371.006a1.082,1.082,0,0,0-.87.447A6.292,6.292,0,0,1,18,24.344a.232.232,0,0,1-.089.012c-.632-.1-.8.447-1.12.787a8.5,8.5,0,0,1-1.216,1.192,9.105,9.105,0,0,1-3.289,1.651,6.572,6.572,0,0,1-3.873-.3A6.491,6.491,0,0,1,4.719,24.1a6.686,6.686,0,0,1-.381-4.231A6.609,6.609,0,0,1,5.649,17.11a11.415,11.415,0,0,1,.959-.977.463.463,0,0,0,.167-.4c-.012-.7.012-1.406.042-2.109a.651.651,0,0,1,.328-.6.218.218,0,0,0,.083-.167c.006-.387.006-.775.006-1.186H5.983c.066-.131.131-.25.215-.423.953.244,1.907.483,2.854.733a23.434,23.434,0,0,1,6.918,3.337,2.167,2.167,0,0,0,.7.381,1.621,1.621,0,0,0,.769-.066c.566-.161,1.12-.363,1.68-.554.036-.012.06-.048.119-.089l-.215-.131a1.824,1.824,0,0,1,.179-.292.632.632,0,0,0,.054-.667c-.155-.179-.328-.346-.489-.518-.137-.155-.268-.316-.4-.477.024-.024.042-.048.066-.072.232.173.471.34.7.518.369.3.733.608,1.1.906a.407.407,0,0,0,.238.089,3.182,3.182,0,0,0,.816-.1c-.751-.489-1.484-1-2.252-1.46s-1.579-.87-2.407-1.329c.072-.185.149-.381.25-.65-.661-.155-1.341-.316-2.056-.489.012.1.018.179.03.25-1.585-.375-3.164-.757-4.767-1.138a2.685,2.685,0,0,0,.03-.465.476.476,0,0,0-.381-.477c-.209-.036-.471-.06-.542.256a.1.1,0,0,1-.083.072c.1-.679.632-.9,1.228-1.12-.077-.1-.155-.179-.22-.268C9.361,6.408,8.6,5.389,7.877,4.341a1.223,1.223,0,0,1-.083-.685c0-.22-.06-.286-.3-.322A17.237,17.237,0,0,0,3.82,3.3c-.316.024-.626.089-.941.131A1.15,1.15,0,0,1,1.472,2.8C1.043,2.011.548,1.254.1.474A1.5,1.5,0,0,1,0,.039,1.4,1.4,0,0,1,.411,0a68.313,68.313,0,0,1,8.366,2c.441.137.894.256,1.341.387.232.1.459.2.685.3.012-.036.024-.066.036-.1a1.122,1.122,0,0,0-.727-.2,1.123,1.123,0,0,1,.393-.042c1.46.363,2.914.727,4.368,1.114.489.131.953.328,1.43.5a2.163,2.163,0,0,1,.244.137,2.383,2.383,0,0,1-1.7.006c-.089-.036-.286.006-.179-.2l-.423-.179a.158.158,0,0,0-.03.036c.042.048.089.1.131.137-.03.03-.06.066-.089.1-.077-.089-.149-.185-.244-.292.006.054.012.113.024.173a1.769,1.769,0,0,1-.965-.53c-.036-.054-.137-.072-.215-.089a7.45,7.45,0,0,0-.793-.22,2.432,2.432,0,0,0-1.3-.077c-.232.083-.53.06-.7.375.483.06.936.119,1.406.179.083-.226.238-.274.471-.185.125.048.28.03.405.077.286.113.626.077.852.381.113.149.393.191.6.256C13.92,4.073,14.027,4.025,14.015,3.852Zm.691,21.142a.95.95,0,0,0,.077.077c-.363.346-.7.727-1.09,1.037s-.846.554-1.275.828a5.737,5.737,0,0,0,.834-.352A5.629,5.629,0,0,0,15.4,19.017a5.439,5.439,0,1,0-6.835,7.574,5.184,5.184,0,0,0,4.4-.226A5.546,5.546,0,0,0,14.706,24.994ZM53.039,27.86a5.061,5.061,0,0,0,5.184-5.119,5.175,5.175,0,0,0-5.345-5.154,5.008,5.008,0,0,0-5,5.035A5.179,5.179,0,0,0,53.039,27.86ZM15.076,9.352A166.331,166.331,0,0,1,36.491,12.54c-.226-.453-.62-.34-.977-.346-1.144-.465-2.342-.787-3.522-1.233a.348.348,0,0,1,.232-.131,5.973,5.973,0,0,1,.721.155c2.109.584,4.213,1.186,6.328,1.758,1.216.334,2.443.632,3.665.947.363.375.691.018,1.013-.077.685-.209,1.365-.459,2.044-.691.31-.107.352-.2.191-.489a.77.77,0,0,0-.2-.215c-1.108-.852-2.217-1.71-3.331-2.55a5.4,5.4,0,0,0-1.394-.936c-1.341-.447-2.711-.793-4.082-1.144-.685-.179-1.388-.286-2.08-.423a23.938,23.938,0,0,1,6.43,1.263,6.2,6.2,0,0,0-1.144-.608c-1-.375-1.99-.739-3-1.055-.828-.262-1.68-.465-2.527-.673A12.847,12.847,0,0,0,31.224,5.7a.634.634,0,0,0-.28.077c-.316.215-.626.447-.941.673-1.114.8-2.223,1.6-3.337,2.4a1.682,1.682,0,0,1-1.228.429c-.083-.012-.167.048-.256.054-.232.024-.465.036-.7.048V9.287l.25-.018c-.006-.024-.006-.048-.012-.072a5.006,5.006,0,0,1-.655.107,3.627,3.627,0,0,1-.59-.072c-.119.018-.2.054-.25.036a2.4,2.4,0,0,0-1.388-.06c-.119.024-.316.066-.363.006-.209-.268-.477-.113-.715-.131A1.374,1.374,0,0,0,20.3,9.2l-.018-.072c.048-.024.1-.042.215-.1-1.353-.083-2.628-.167-3.9-.244l-.018.107a1.383,1.383,0,0,1,1.114.369A25.29,25.29,0,0,0,15.076,9.352ZM1.5.742a4.366,4.366,0,0,1,.31.572c.131.381.417.435.763.465a3.341,3.341,0,0,1,1.5.381,13.94,13.94,0,0,0,1.275.614.686.686,0,0,0,.28.066A18.113,18.113,0,0,1,9.3,3.215c.381.072.548-.119.822-.346A50.707,50.707,0,0,0,1.5.742Zm24.27,7.931c.209-.083.429-.179.65-.256.107-.036.25.012.34-.042.888-.53,1.776-1.067,2.652-1.627.381-.244.727-.548,1.156-.864-.143-.036-.179-.06-.215-.054A8.6,8.6,0,0,0,28.6,5.9c-.256.077-.518.077-.673.322a.916.916,0,0,1-1.108.489c-.161-.042-.387-.066-.423.226-.06.512-.066.512.34.62C26.4,7.946,26.076,8.315,25.766,8.673Zm8.539,7.9a1.066,1.066,0,0,0-.083.077,2.616,2.616,0,0,0,.2.435q1.153,1.573,2.336,3.128a.3.3,0,0,0,.262.06,7.421,7.421,0,0,0,.709-.3.425.425,0,0,0,.119-.727c-.727-.673-1.472-1.335-2.175-2.032A3.871,3.871,0,0,0,34.3,16.568ZM8.45,15.5c.012.042.03.089.042.131.137-.024.28-.036.411-.066.161-.036.316-.113.483-.137.226-.03.459-.024.685-.036a1.558,1.558,0,0,1,.238-.012c.262.018.524.036.787.06a1.864,1.864,0,0,1,.262.024c.238.06.471.125.7.191a2.631,2.631,0,0,1,.31.083c.215.1.423.2.638.3.1.048.2.083.292.137.215.137.429.28.638.417a1.374,1.374,0,0,1,.215.149c.411.435.81.876,1.216,1.317.066.072.173.143.185.226.083.56.7.87.685,1.478,0,.012.03.024.06.042.036-.22.149-.465.089-.65a8.4,8.4,0,0,0-.548-1.2c-.083-.161-.286-.268-.352-.429a4.06,4.06,0,0,0-1.2-1.281,7.445,7.445,0,0,0-1.311-.757,3.665,3.665,0,0,0-2.467-.542c-.453.066-.918.1-1.365.209A3.6,3.6,0,0,0,8.45,15.5ZM10.922,4.6a3.023,3.023,0,0,0-.387.358c-.31.405-.34.477.012.84.512.536,1.079,1.013,1.621,1.514a2.946,2.946,0,0,0,1.365.673c.077.018.149.048.226.072.358.137.709.28,1.073.4a1.834,1.834,0,0,0,.381.03,1.053,1.053,0,0,0-1.126-.709c-.155.018-.316.012-.477.024a.566.566,0,0,1-.566-.25c-.155-.238-.292-.489-.459-.715-.322-.441-.661-.864-.989-1.3C11.375,5.252,11.173,4.955,10.922,4.6ZM54.606,17.414l.018-.107a2.643,2.643,0,0,0-.506-.2,8.066,8.066,0,0,0-1.251-.209,4.073,4.073,0,0,0-1.263.083,13.229,13.229,0,0,0-1.746.679c-.173.077-.28.3-.447.369-.536.22-.7.787-1.12,1.114a.263.263,0,0,0-.06.191c.03.2.1.4-.238.471.083.06.125.083.161.107s.089.06.149.1A5.687,5.687,0,0,1,54.606,17.414ZM25.933,6.444c-.149-.012-.256-.018-.363-.024-.87-.03-1.746-.06-2.616-.083a18.116,18.116,0,0,0-3.5.03,2.814,2.814,0,0,0-.584.226c.012.024.018.048.03.072a.829.829,0,0,1,.191-.072c.947-.072,1.907-.512,2.836.077a7.317,7.317,0,0,0,1.621-.06,2.609,2.609,0,0,1,2.187.274C25.79,6.766,25.849,6.635,25.933,6.444ZM62.4,19.124v1.788a.3.3,0,0,0,.358-.334c.018-.358.042-.709.066-1.061C62.841,19.25,62.728,19.1,62.4,19.124ZM12.37,4.514c-.018.024-.036.054-.054.077.2.262.405.524.638.822.137-.316.25-.572.369-.846C12.99,4.543,12.68,4.531,12.37,4.514ZM46.353,15.15a.54.54,0,0,1-.066-.1,11.778,11.778,0,0,0-2.64,1.746C44.589,16.228,45.471,15.686,46.353,15.15Zm15.785,3.319v.793C62.484,18.606,62.5,18.427,62.138,18.469ZM14.5,8.857c.06.292.119.608.191.959C14.855,9.155,14.808,8.983,14.5,8.857Zm26.665,4.779.018-.125c-.411-.1-.822-.185-1.239-.28-.006.036-.012.072-.018.1C40.335,13.44,40.746,13.535,41.163,13.636Zm1.472.06c-.28-.048-.566-.089-.876-.137A.79.79,0,0,0,42.635,13.7ZM26.409,6.581c-.226.1-.31.477-.191.858C26.284,7.135,26.344,6.867,26.409,6.581ZM9.415,5.574c.012.131-.012.268.042.34a.338.338,0,0,0,.292.1c.083-.03.137-.161.238-.3-.167.107-.262.173-.358.232C9.564,5.836,9.5,5.729,9.415,5.574Zm.352-.834c.089.119.167.22.268.358.089-.131.155-.232.244-.358Z" transform="translate(0 0)"/>
    <path id="Path_3" data-name="Path 3" class="cls-1" d="M67.169,153.113a2.438,2.438,0,0,0-.34.2c-.149.125-.358.226-.179.507.06.1-.03.3-.06.447-.077.375-.161.745-.244,1.132-.375.125-.536.018-.548-.393-.006-.119-.024-.238-.018-.352.018-.22-.089-.536.334-.506.036,0,.077-.149.119-.232.1-.226.2-.453.3-.679.131-.28.375-.215.6-.209A.345.345,0,0,0,67.169,153.113Z" transform="translate(-61.86 -143.91)"/>
    <path id="Path_4" data-name="Path 4" class="cls-1" d="M106.346,167.6c-.375-.107-.757-.209-1.126-.322a.307.307,0,0,1-.125-.131c.072-.089.155-.232.244-.238a5.9,5.9,0,0,1,.858-.006,5.608,5.608,0,0,1,1.061.149c-.119.042-.25.137-.363.119-.3-.042-.405.137-.483.369A.54.54,0,0,0,106.346,167.6Z" transform="translate(-98.832 -156.951)"/>
    <path id="Path_5" data-name="Path 5" class="cls-1" d="M186.812,170.677c-.316-.012-.632-.006-.941-.042a10.842,10.842,0,0,1-1.15-.215c-.083-.018-.143-.125-.22-.191.226-.012.447-.024.673-.03.077.018.149.036.226.048.405.054.8.107,1.2.167.054.006.1.072.143.113A1.032,1.032,0,0,1,186.812,170.677Z" transform="translate(-173.506 -160.067)"/>
    <path id="Path_6" data-name="Path 6" class="cls-1" d="M263.688,191.577c-.6-.3-1.192-.6-1.788-.9.012-.024.018-.048.03-.077.155.066.31.119.459.2.363.179.727.358,1.079.554.089.048.143.155.22.226Z" transform="translate(-246.294 -179.252)"/>
    <path id="Path_7" data-name="Path 7" class="cls-1" d="M165.99,163.728l-1.09-.268c.006-.018.006-.042.012-.06.453.089.9.185,1.353.274Z" transform="translate(-155.074 -153.673)"/>
    <path id="Path_8" data-name="Path 8" class="cls-1" d="M126.1,176.355l.066-.066c.274-.22.352.006.471.256C126.434,176.468,126.267,176.408,126.1,176.355Z" transform="translate(-118.586 -165.71)"/>
    <path id="Path_9" data-name="Path 9" class="cls-1" d="M292.8,237.305c.405-.137.8-.268,1.21-.405l.018.054c-.4.137-.8.268-1.2.405A.243.243,0,0,1,292.8,237.305Z" transform="translate(-275.353 -222.793)"/>
    <path id="Path_10" data-name="Path 10" class="cls-1" d="M291.8,207.006c.179.072.357.137.542.209-.024.042-.048.083-.072.131-.155-.113-.31-.226-.459-.346A.021.021,0,0,0,291.8,207.006Z" transform="translate(-274.412 -194.674)"/>
    <path id="Path_11" data-name="Path 11" class="cls-1" d="M122.028,293.5c.149.042.232.06.322.089a.664.664,0,0,1-.59.548C121.587,293.786,121.826,293.625,122.028,293.5Z" transform="translate(-114.449 -276.02)"/>
    <path id="Path_12" data-name="Path 12" class="cls-1" d="M105.054,317.236c-.125.232-.244.465-.393.745-.066-.226-.113-.4-.161-.566.143-.066.316-.137.483-.215Z" transform="translate(-98.273 -298.308)"/>
    <path id="Path_13" data-name="Path 13" class="cls-1" d="M183.536,277.934a.82.82,0,0,1-.936-.119A1.013,1.013,0,0,1,183.536,277.934Z" transform="translate(-171.719 -261.205)"/>
    <path id="Path_14" data-name="Path 14" class="cls-1" d="M170.251,281.322h-.733c-.006-.024-.012-.042-.018-.066l.4-.256c.131.083.25.155.369.226C170.263,281.256,170.257,281.286,170.251,281.322Z" transform="translate(-159.4 -264.265)"/>
    <path id="Path_15" data-name="Path 15" class="cls-1" d="M196.821,285.815c-.226-.072-.453-.149-.721-.238.352-.274.477-.238.751.143C196.839,285.75,196.833,285.78,196.821,285.815Z" transform="translate(-184.415 -268.401)"/>
    <path id="Path_16" data-name="Path 16" class="cls-1" d="M211.036,284.5c.256.149.512.3.775.447-.429.066-.512.018-.81-.375A.4.4,0,0,0,211.036,284.5Z" transform="translate(-198.427 -267.556)"/>
    <path id="Path_17" data-name="Path 17" class="cls-1" d="M148.9,277.78c.292-.1.59-.185.882-.28A.671.671,0,0,1,148.9,277.78Z" transform="translate(-140.027 -260.974)"/>
    <path id="Path_18" data-name="Path 18" class="cls-1" d="M136.9,292.974c.083-.316.28-.429.644-.375C137.323,292.777,137.234,293.069,136.9,292.974Z" transform="translate(-128.742 -275.16)"/>
    <path id="Path_19" data-name="Path 19" class="cls-1" d="M221.3,298.5c.226.042.518.018.5.387C221.467,298.977,221.425,298.685,221.3,298.5Z" transform="translate(-208.113 -280.722)"/>
    <path id="Path_20" data-name="Path 20" class="cls-1" d="M239.9,307.5c.125.179.256.358.381.53-.03.024-.06.042-.089.066l-.387-.53C239.83,307.548,239.86,307.524,239.9,307.5Z" transform="translate(-225.511 -289.186)"/>
    <path id="Path_21" data-name="Path 21" class="cls-1" d="M943.6,323.4c.244.185.489.369.471.7C943.906,323.871,943.507,323.775,943.6,323.4Z" transform="translate(-887.358 -304.138)"/>
    <path id="Path_22" data-name="Path 22" class="cls-1" d="M913.233,308.622c-.226-.107-.459-.215-.733-.346.483-.167.483-.167.781.274A.369.369,0,0,0,913.233,308.622Z" transform="translate(-858.126 -289.819)"/>
    <path id="Path_23" data-name="Path 23" class="cls-1" d="M854.2,305.475c.179-.268.483-.262.739-.375a1.105,1.105,0,0,0,.059.119c-.25.119-.5.232-.745.352C854.236,305.541,854.218,305.505,854.2,305.475Z" transform="translate(-803.3 -286.929)"/>
    <path id="Path_24" data-name="Path 24" class="cls-1" d="M884.8,302.175c.465-.328.507-.322.84.066C885.384,302.222,885.128,302.2,884.8,302.175Z" transform="translate(-832.077 -283.956)"/>
    <path id="Path_25" data-name="Path 25" class="cls-1" d="M494.7,123.859c.971-.644,1.877-1.245,2.795-1.829a.96.96,0,0,1,.566-.107,19.45,19.45,0,0,1,2.431.369,39.521,39.521,0,0,1,5.774,1.615,9.085,9.085,0,0,1,1.168.757c.363.232.751.423,1.1.673.715.512,1.412,1.049,2.115,1.579a4.1,4.1,0,0,1,.31.274c-.787.3-1.567.614-2.354.906a.6.6,0,0,1-.34-.006q-3.915-1.055-7.824-2.121c-.614-.167-1.233-.334-1.847-.512a.812.812,0,0,1-.4-.215,2.8,2.8,0,0,0-1.943-1.043C495.755,124.133,495.26,123.99,494.7,123.859Z" transform="translate(-465.222 -114.662)"/>
    <path id="Path_26" data-name="Path 26" class="cls-1" d="M450.13,157.686c-.31-.06-.62-.119-.93-.173.006-.036.012-.072.018-.113l.93.161A.454.454,0,0,1,450.13,157.686Z" transform="translate(-422.433 -148.03)"/>
    <path id="Path_27" data-name="Path 27" class="cls-1" d="M509.924,174.3c.3.072.6.143.9.209l-.018.072c-.3-.077-.6-.149-.906-.226A.21.21,0,0,0,509.924,174.3Z" transform="translate(-479.516 -163.923)"/>
  </g>
</svg>
